<?xml version="1.0" standalone="no"?>
<!DOCTYPE svg PUBLIC "-//W3C//DTD SVG 20010904//EN"
 "http://www.w3.org/TR/2001/REC-SVG-20010904/DTD/svg10.dtd">
<svg version="1.0" xmlns="http://www.w3.org/2000/svg"
 width="3228.000000pt" height="3228.000000pt" viewBox="0 0 3228.000000 3228.000000"
 preserveAspectRatio="xMidYMid meet">
<metadata>
Created by potrace 1.11, written by Peter Selinger 2001-2013
</metadata>
<g transform="translate(0.000000,3228.000000) scale(0.100000,-0.100000)"
fill="#000000" stroke="none">
<path d="M12705 26536 c-7 -12 -64 -111 -127 -221 -105 -182 -286 -496 -328
-570 -10 -16 -43 -75 -75 -130 -31 -55 -60 -104 -64 -110 -5 -5 -22 -35 -38
-65 -17 -30 -54 -95 -83 -145 -58 -100 -208 -360 -410 -710 -73 -126 -206
-357 -296 -512 -90 -156 -164 -287 -164 -292 0 -5 -4 -11 -8 -13 -4 -1 -37
-54 -72 -117 -36 -63 -76 -132 -89 -155 -232 -400 -296 -511 -359 -621 -91
-159 -106 -185 -134 -232 -12 -21 -35 -62 -52 -91 -17 -30 -35 -61 -41 -70 -5
-9 -70 -122 -143 -249 -73 -128 -138 -235 -143 -239 -6 -3 -1200 -6 -2654 -6
-1507 0 -2645 -4 -2645 -9 0 -4 -20 -41 -44 -81 -24 -40 -114 -197 -201 -348
-87 -151 -178 -308 -202 -347 -24 -40 -43 -75 -43 -77 0 -2 -21 -40 -47 -83
-25 -43 -69 -118 -98 -168 -28 -49 -87 -151 -130 -225 -43 -74 -86 -150 -97
-168 -10 -18 -59 -103 -108 -187 -49 -84 -98 -169 -108 -187 -46 -81 -657
-1136 -673 -1163 -10 -16 -22 -37 -26 -45 -6 -13 -238 -418 -333 -580 -21 -36
-96 -166 -168 -290 -71 -124 -139 -241 -151 -260 -11 -19 -24 -42 -28 -50 -3
-8 -21 -39 -40 -68 -18 -29 -33 -54 -33 -57 0 -3 -114 -204 -140 -245 -9 -15
-204 -352 -242 -420 -11 -19 -37 -64 -58 -100 -21 -36 -47 -81 -58 -100 -11
-19 -59 -102 -107 -185 -48 -82 -97 -168 -110 -190 -12 -22 -47 -83 -77 -135
-30 -52 -66 -113 -80 -135 -25 -40 -25 -42 -8 -65 9 -14 31 -50 47 -80 17 -30
82 -143 144 -250 62 -107 117 -205 123 -217 6 -13 14 -23 19 -23 4 0 7 -5 7
-11 0 -6 27 -56 60 -111 33 -54 60 -100 60 -102 0 -2 95 -167 210 -366 116
-199 210 -363 210 -364 0 -2 59 -103 130 -226 72 -122 130 -224 130 -225 0 -2
22 -39 48 -82 26 -43 56 -94 65 -113 10 -19 26 -48 37 -65 10 -16 27 -46 38
-65 11 -19 68 -118 127 -220 59 -102 116 -201 127 -220 44 -76 295 -512 358
-620 37 -63 128 -221 202 -350 74 -129 163 -282 197 -338 33 -57 61 -106 61
-108 0 -2 25 -44 55 -95 30 -50 55 -93 55 -95 0 -2 22 -41 49 -86 27 -46 124
-213 216 -373 92 -159 175 -303 185 -320 9 -16 103 -178 207 -360 105 -181
204 -352 220 -380 l29 -50 2650 -2 c1457 -1 2656 -2 2666 -2 14 -1 128 -186
241 -391 16 -30 38 -66 47 -80 9 -14 30 -50 47 -80 16 -30 81 -143 143 -250
62 -107 121 -208 130 -225 47 -83 81 -142 90 -155 6 -8 13 -22 17 -30 4 -8 23
-42 43 -75 20 -33 39 -67 43 -75 4 -8 17 -31 28 -50 12 -19 64 -109 116 -200
53 -91 153 -264 223 -385 70 -121 137 -236 148 -255 11 -19 35 -62 54 -95 295
-512 392 -679 449 -777 38 -64 69 -121 69 -127 0 -5 4 -11 8 -13 5 -1 22 -28
38 -58 17 -30 66 -116 109 -190 119 -206 226 -392 246 -425 10 -16 26 -46 37
-65 16 -30 174 -303 266 -460 15 -25 34 -59 42 -76 l16 -31 3434 0 3433 0 73
125 c40 69 78 133 83 143 6 9 20 34 31 55 12 22 129 224 259 449 131 226 251
435 268 465 16 30 33 60 38 65 4 6 41 69 82 140 40 72 125 218 187 325 137
238 145 252 169 293 93 162 163 285 171 297 5 8 31 53 58 100 27 47 66 114 87
150 20 36 46 81 57 100 28 48 201 347 226 390 12 19 36 62 55 95 18 33 102
179 187 325 84 146 164 285 178 310 14 25 35 61 47 80 12 19 84 143 160 275
76 132 151 263 167 290 16 28 34 60 40 72 6 13 18 23 27 24 9 0 1185 1 2613 1
1428 1 2600 4 2605 7 8 5 76 117 142 234 11 20 30 52 40 71 11 19 31 53 45 75
15 22 26 43 26 45 0 2 27 50 60 106 33 56 60 105 60 110 0 5 3 10 8 12 4 2 17
21 29 43 47 88 443 771 453 782 5 7 10 15 10 18 0 5 60 110 129 225 11 19 24
41 28 49 3 8 66 117 140 244 73 126 133 233 133 236 0 4 7 16 15 26 13 16 195
328 278 475 10 19 70 123 132 230 62 107 122 211 133 230 11 19 68 118 127
220 59 102 117 203 130 225 50 88 289 502 306 530 11 16 22 37 26 45 3 8 16
31 28 50 12 19 33 55 47 80 50 90 354 615 385 665 7 11 16 27 20 35 4 8 118
208 255 443 l247 429 -21 41 c-11 23 -36 66 -54 95 -19 29 -34 55 -34 57 0 3
-18 35 -40 71 -22 36 -40 68 -40 70 0 3 -69 122 -90 154 -6 8 -13 22 -17 30
-4 8 -31 55 -60 104 -29 49 -53 90 -53 92 0 2 -37 67 -83 146 -99 169 -346
597 -375 650 -12 20 -32 55 -46 77 -15 22 -26 43 -26 46 0 4 -63 113 -90 155
-5 8 -21 35 -35 60 -14 25 -29 52 -35 60 -18 29 -136 235 -143 250 -4 8 -17
31 -28 50 -24 40 -215 369 -417 720 -74 129 -143 249 -153 265 -10 17 -24 41
-32 55 -12 22 -136 237 -187 325 -67 115 -120 206 -142 245 -14 25 -57 98 -94
163 -38 65 -78 135 -90 155 -11 20 -65 114 -119 207 -136 235 -164 283 -193
335 -14 25 -45 78 -69 118 -24 41 -43 76 -43 79 0 2 -13 24 -30 48 -16 24 -30
46 -30 49 0 3 -21 40 -46 83 -26 43 -57 96 -69 118 -12 22 -73 128 -135 235
-62 107 -122 211 -133 230 -10 19 -55 96 -98 171 l-80 137 -2607 0 c-2989 1
-2672 -1 -2672 11 0 5 -19 42 -43 83 -24 40 -55 93 -69 118 -14 25 -64 112
-112 193 -47 82 -97 167 -110 190 -13 23 -55 95 -92 160 -38 65 -78 135 -90
155 -78 139 -165 289 -174 299 -5 7 -10 15 -10 18 0 3 -11 22 -23 43 -13 20
-38 62 -54 92 -27 48 -370 643 -525 910 -109 188 -292 506 -316 550 -14 25
-28 50 -32 55 -6 8 -150 257 -260 449 -9 17 -92 160 -184 319 -92 158 -175
302 -185 320 -41 71 -270 466 -309 533 l-41 71 -3431 0 -3432 0 -13 -21z"/>
</g>
</svg>
